<?xml version="1.0" encoding="UTF-8"?>
<svg id="Layer_2" data-name="Layer 2" xmlns="http://www.w3.org/2000/svg" viewBox="0 0 161.38 75.61">
  <defs>
    <style>
      .cls-1 {
        fill: #ed1c24;
      }
    </style>
  </defs>
  <g id="Layer_1-2" data-name="Layer 1">
    <path class="cls-1" d="M1.65,72.85c17.52-11.38,35.56-21.95,54.07-31.64s37.56-18.57,56.95-26.5c10.87-4.45,21.85-8.6,32.94-12.47l-1.27-1.65c-6.03,12.99-16.63,22.78-28.02,31.11s-24.3,15.93-35.64,25.04c-6.3,5.07-12.14,10.7-16.98,17.19-.61.81.39,1.9,1.27,1.65,25.42-7.21,50.49-15.64,75.09-25.28,6.95-2.72,13.86-5.54,20.73-8.45,1.33-.56.18-2.5-1.14-1.94-24.24,10.26-48.98,19.33-74.11,27.19-7.03,2.2-14.09,4.3-21.18,6.31l1.27,1.65c8.71-11.68,20.74-20.27,32.69-28.34s24.17-15.64,34.28-25.84c5.56-5.6,10.32-11.99,13.65-19.16.37-.81-.26-2.01-1.27-1.65-19.82,6.92-39.31,14.76-58.39,23.49s-37.72,18.35-55.88,28.83c-10.24,5.91-20.31,12.08-30.22,18.52-1.21.79-.08,2.73,1.14,1.94h0Z"/>
  </g>
</svg>